Coordinates
version=1
nRows=30
nColumns=38
inDegrees=no

Units are S.I. units (second, meters, Newtons, ...)
If the header above contains a line with 'inDegrees', this indicates whether rotational values are in degrees (yes) or radians (no).

endheader
time	pelvis_tilt	pelvis_list	pelvis_rotation	pelvis_tx	pelvis_ty	pelvis_tz	hip_flexion_r	hip_adduction_r	hip_rotation_r	knee_angle_r	ankle_angle_r	subtalar_angle_r	mtp_angle_r	hip_flexion_l	hip_adduction_l	hip_rotation_l	knee_angle_l	ankle_angle_l	subtalar_angle_l	mtp_angle_l	lumbar_extension	lumbar_bending	lumbar_rotation	arm_flex_r	arm_add_r	arm_rot_r	elbow_flex_r	pro_sup_r	wrist_flex_r	wrist_dev_r	arm_flex_l	arm_add_l	arm_rot_l	elbow_flex_l	pro_sup_l	wrist_flex_l	wrist_dev_l
0.59	0.216687	0.978569	1.60396	0.91666	0.0610835	0.992729	0.92152	-0.103581	-0.0449512	0	-0.238278	0	0	0.361673	0.00350331	-0.0301132	0.16819	-0.102681	0	0	0.573905	-0.0350528	-0.0958395	-0.215832	-0.253608	0.459679	0.431584	1.33682	0	0	-0.297704	-0.136813	-0.489076	0.528267	1.08357	0	0
0.6	0.219373	0.977256	1.60965	0.915972	0.0727814	0.990531	0.923945	-0.105908	-0.0536434	0	-0.231581	0	0	0.355196	0.00175158	-0.0275909	0.177564	-0.0956776	0	0	0.57224	-0.0344233	-0.0978294	-0.216703	-0.256106	0.448005	0.432855	1.34313	0	0	-0.298968	-0.140485	-0.469191	0.534731	1.06637	0	0
0.61	0.221788	0.977128	1.61449	0.915386	0.084691	0.988505	0.925444	-0.107504	-0.0580595	0	-0.226828	0	0	0.348622	-0.000478156	-0.0263947	0.188419	-0.0918985	0	0	0.569363	-0.0331596	-0.100145	-0.216218	-0.259499	0.440087	0.433518	1.34414	0	0	-0.29917	-0.141964	-0.459468	0.539232	1.05763	0	0
0.62	0.224598	0.977689	1.61798	0.914868	0.0967867	0.986703	0.926943	-0.107841	-0.0596977	0	-0.224047	0	0	0.342683	-0.00337564	-0.0254339	0.201869	-0.0874711	0	0	0.565504	-0.0308876	-0.102383	-0.215141	-0.263037	0.431966	0.433794	1.34423	0	0	-0.299323	-0.143419	-0.449742	0.542644	1.04803	0	0
0.63	0.228323	0.978012	1.61916	0.914467	0.109059	0.985119	0.929045	-0.10609	-0.0571884	0	-0.22483	0	0	0.338304	-0.00736368	-0.0252359	0.217777	-0.0841826	0	0	0.562569	-0.0270577	-0.104143	-0.213524	-0.266889	0.426628	0.432676	1.34424	0	0	-0.299127	-0.144231	-0.442278	0.543816	1.0404	0	0
0.64	0.23311	0.978381	1.61767	0.914181	0.121642	0.983744	0.932626	-0.101899	-0.0552624	0.0133825	-0.227336	0	0	0.334864	-0.0126128	-0.0264288	0.236301	-0.079683	0	0	0.560092	-0.0214829	-0.105358	-0.212259	-0.270947	0.420134	0.43143	1.34498	0	0	-0.299649	-0.145988	-0.429599	0.543735	1.02662	0	0
0.65	0.237863	0.97915	1.61497	0.913941	0.134695	0.982607	0.937771	-0.0960968	-0.0581736	0.0494714	-0.227732	0	0	0.331746	-0.0180541	-0.0293221	0.258353	-0.0774198	0	0	0.558359	-0.0153508	-0.105819	-0.211746	-0.275152	0.414575	0.429716	1.34476	0	0	-0.300719	-0.147328	-0.418807	0.542566	1.01194	0	0
0.66	0.24357	0.980094	1.6117	0.913646	0.148163	0.981617	0.940788	-0.0893804	-0.0610823	0.0848132	-0.228647	0	0	0.329769	-0.0237251	-0.0294773	0.281876	-0.0770796	0	0	0.557593	-0.00910426	-0.10689	-0.212169	-0.279293	0.40976	0.427655	1.34338	0	0	-0.302561	-0.148577	-0.409148	0.540713	0.997214	0	0
0.67	0.25034	0.98046	1.60784	0.913329	0.161964	0.980732	0.941314	-0.0822173	-0.0609102	0.111351	-0.236984	0	0	0.329929	-0.0296107	-0.0263883	0.30803	-0.0783628	0	0	0.558772	-0.00286258	-0.108427	-0.213764	-0.283333	0.406415	0.425238	1.34166	0	0	-0.30497	-0.150057	-0.399945	0.537697	0.98349	0	0
0.68	0.256615	0.978872	1.60384	0.913027	0.175864	0.979919	0.941936	-0.0759225	-0.0554766	0.127037	-0.256773	0	0	0.334031	-0.0348888	-0.0212966	0.338451	-0.0816806	0	0	0.563105	0.00313151	-0.109219	-0.216683	-0.287463	0.40413	0.423096	1.33943	0	0	-0.307618	-0.151655	-0.391198	0.533136	0.970954	0	0
0.69	0.26186	0.975277	1.59941	0.912789	0.189767	0.979245	0.94496	-0.0701577	-0.0490425	0.139644	-0.279655	0	0	0.342092	-0.0395027	-0.0144612	0.372214	-0.0874088	0	0	0.570411	0.00914772	-0.108008	-0.220593	-0.291374	0.402626	0.420486	1.33639	0	0	-0.310118	-0.153406	-0.382175	0.526963	0.959647	0	0
0.7	0.267415	0.971359	1.5931	0.912623	0.203764	0.978935	0.949244	-0.0634706	-0.0491384	0.156245	-0.297372	0	0	0.352041	-0.0445762	-0.00616479	0.408417	-0.0970232	0	0	0.578592	0.0164323	-0.104713	-0.225215	-0.295244	0.401863	0.417437	1.33168	0	0	-0.311664	-0.155626	-0.369879	0.518228	0.947655	0	0
0.71	0.274354	0.96901	1.58318	0.912579	0.217938	0.979184	0.952185	-0.0548615	-0.0544627	0.178036	-0.303382	0	0	0.361664	-0.0511775	0.00173532	0.446336	-0.110366	0	0	0.584778	0.0261035	-0.0995059	-0.229501	-0.298922	0.400979	0.4137	1.32511	0	0	-0.311172	-0.15694	-0.358364	0.506526	0.937199	0	0
0.72	0.281265	0.96798	1.57014	0.912668	0.23219	0.979894	0.954219	-0.0445008	-0.0565543	0.20477	-0.301455	0	0	0.371391	-0.0583139	0.0092864	0.486677	-0.128034	0	0	0.5887	0.0378914	-0.091793	-0.233306	-0.302764	0.400213	0.410216	1.31705	0	0	-0.309017	-0.156866	-0.349029	0.492735	0.9282	0	0
0.73	0.286213	0.967023	1.55637	0.91285	0.246304	0.980845	0.95694	-0.0330037	-0.0492053	0.236322	-0.2936	0	0	0.383177	-0.064672	0.0157756	0.529966	-0.151123	0	0	0.591362	0.0502274	-0.0821844	-0.236648	-0.307137	0.400022	0.408066	1.30883	0	0	-0.306379	-0.155507	-0.342718	0.478653	0.920569	0	0
0.74	0.289754	0.966391	1.54279	0.913189	0.260199	0.981903	0.959792	-0.0206174	-0.0358414	0.270801	-0.280214	0	0	0.397279	-0.0706934	0.0216102	0.576561	-0.179351	0	0	0.592257	0.061852	-0.0721901	-0.2389	-0.311539	0.401661	0.407324	1.30184	0	0	-0.304476	-0.153876	-0.338195	0.466867	0.915107	0	0
0.75	0.293091	0.967001	1.52968	0.913642	0.273892	0.98308	0.96018	-0.00769261	-0.0238567	0.303294	-0.263933	0	0	0.412865	-0.0768426	0.026867	0.626364	-0.21181	0	0	0.590483	0.072247	-0.0636064	-0.239296	-0.315725	0.405408	0.40757	1.29611	0	0	-0.303545	-0.152354	-0.3351	0.457957	0.911735	0	0
0.76	0.297981	0.969086	1.51695	0.914111	0.28738	0.984376	0.956143	0.00491742	-0.0181578	0.329304	-0.247427	0	0	0.429613	-0.0832866	0.0335748	0.679658	-0.246254	0	0	0.586488	0.0814154	-0.0578159	-0.237765	-0.319565	0.411845	0.40791	1.29251	0	0	-0.303056	-0.15083	-0.334812	0.451096	0.909864	0	0
0.77	0.305919	0.971851	1.50439	0.914472	0.3006	0.98568	0.947156	0.0163137	-0.0189369	0.3457	-0.232694	0	0	0.448666	-0.0901694	0.043269	0.735847	-0.281479	0	0	0.581596	0.0895828	-0.0559436	-0.234701	-0.323335	0.420621	0.408362	1.29138	0	0	-0.303252	-0.149229	-0.336782	0.446582	0.910296	0	0
0.78	0.317656	0.975537	1.4918	0.914655	0.313612	0.986981	0.932891	0.0263268	-0.0256307	0.353339	-0.22001	0	0	0.469081	-0.0975473	0.0556238	0.793046	-0.317045	0	0	0.575437	0.0969632	-0.0582389	-0.230863	-0.327309	0.430226	0.410356	1.29193	0	0	-0.304046	-0.147428	-0.341039	0.444762	0.912793	0	0
0.79	0.331919	0.979561	1.48019	0.914596	0.32634	0.988212	0.914959	0.0347569	-0.0355675	0.354625	-0.208211	0	0	0.49101	-0.104497	0.0702301	0.849831	-0.353979	0	0	0.568448	0.103269	-0.0640187	-0.226966	-0.331781	0.43955	0.415138	1.29392	0	0	-0.305422	-0.145532	-0.346785	0.445821	0.917113	0	0
0.8	0.346716	0.983948	1.47014	0.914383	0.338919	0.989405	0.894788	0.0420026	-0.0466359	0.352094	-0.196708	0	0	0.513125	-0.110308	0.0861696	0.903649	-0.393253	0	0	0.561119	0.108283	-0.0715694	-0.223382	-0.336311	0.447364	0.421928	1.2973	0	0	-0.307497	-0.143859	-0.353347	0.449204	0.922389	0	0
0.81	0.359132	0.987374	1.46343	0.914084	0.351217	0.990519	0.876157	0.0474767	-0.0583029	0.349209	-0.185607	0	0	0.536598	-0.113708	0.102268	0.953905	-0.4298	0	0	0.555017	0.111158	-0.0791663	-0.220672	-0.340468	0.451632	0.430568	1.30069	0	0	-0.309858	-0.142607	-0.360268	0.453999	0.927869	0	0
0.82	0.367056	0.98916	1.45991	0.913828	0.363259	0.991605	0.8609	0.0517404	-0.0693799	0.347457	-0.176324	0	0	0.561322	-0.114665	0.116803	1.00051	-0.451475	0	0	0.551521	0.112046	-0.083651	-0.219337	-0.343411	0.452015	0.439217	1.30311	0	0	-0.311739	-0.142293	-0.365569	0.458408	0.932249	0	0
0.83	0.371592	0.991032	1.45743	0.913746	0.375372	0.992886	0.846165	0.0563549	-0.0767436	0.345949	-0.16959	0	0	0.584633	-0.114889	0.127821	1.04336	-0.454693	0	0	0.549566	0.111864	-0.0840235	-0.21864	-0.344443	0.451028	0.445326	1.30455	0	0	-0.312712	-0.143407	-0.36809	0.460543	0.935026	0	0
0.84	0.373676	0.993682	1.45559	0.913729	0.387628	0.994352	0.831049	0.0608225	-0.0832374	0.345277	-0.161333	0	0	0.605717	-0.114559	0.135494	1.08251	-0.442382	0	0	0.547938	0.111049	-0.0816431	-0.219428	-0.344878	0.447087	0.452213	1.30542	0	0	-0.313361	-0.144721	-0.3713	0.461448	0.937545	0	0
0.85	0.372497	0.997509	1.45411	0.913843	0.40001	0.996017	0.814579	0.0655263	-0.0868221	0.344577	-0.151358	0	0	0.624128	-0.113847	0.138739	1.11797	-0.410323	0	0	0.54575	0.109958	-0.0743894	-0.222269	-0.3444	0.437809	0.460006	1.30548	0	0	-0.312326	-0.14604	-0.375747	0.459962	0.940754	0	0
0.86	0.368381	1.00181	1.45314	0.914078	0.412414	0.997822	0.796841	0.0703588	-0.0863192	0.342249	-0.143597	0	0	0.641009	-0.113218	0.137105	1.14946	-0.372752	0	0	0.543585	0.108627	-0.0635806	-0.226051	-0.342986	0.425344	0.467582	1.30614	0	0	-0.310275	-0.148167	-0.378669	0.455879	0.945709	0	0
0.87	0.362364	1.00702	1.45333	0.914308	0.424816	0.999746	0.777456	0.0743917	-0.083873	0.338878	-0.137801	0	0	0.65636	-0.11214	0.132686	1.17731	-0.336824	0	0	0.540785	0.106392	-0.052359	-0.229008	-0.340842	0.413345	0.474162	1.30783	0	0	-0.308425	-0.150835	-0.380756	0.450565	0.950089	0	0
0.88	0.354388	1.0126	1.45571	0.914469	0.4371	1.00173	0.757289	0.0771086	-0.0805337	0.334513	-0.132655	0	0	0.6706	-0.110153	0.1266	1.20024	-0.304073	0	0	0.537938	0.102696	-0.0418294	-0.230943	-0.338004	0.402339	0.479776	1.31036	0	0	-0.307099	-0.153646	-0.383068	0.444842	0.953536	0	0
